<?xml version="1.0" encoding="UTF-8"?>
<!DOCTYPE svg PUBLIC "-//W3C//DTD SVG 1.1//EN" "http://www.w3.org/Graphics/SVG/1.1/DTD/svg11.dtd">
<!-- Creator: CorelDRAW 2020 (64-Bit Evaluation Version) -->
<svg xmlns="http://www.w3.org/2000/svg" xml:space="preserve" width="3.02232in" height="1.56508in" version="1.1" style="shape-rendering:geometricPrecision; text-rendering:geometricPrecision; image-rendering:optimizeQuality; fill-rule:evenodd; clip-rule:evenodd"
viewBox="0 0 3178.11 1645.75"
 xmlns:xlink="http://www.w3.org/1999/xlink"
 xmlns:xodm="http://www.corel.com/coreldraw/odm/2003">
 <defs>
  <style type="text/css">
   <![CDATA[
    .fil1 {fill:#A8CF45}
    .fil0 {fill:#17543A}
   ]]>
  </style>
    <clipPath id="id0">
     <rect x="1202.43" y="836.91" width="1975.68" height="369.7"/>
    </clipPath>
 </defs>
 <g id="Layer_x0020_1">
  <metadata id="CorelCorpID_0Corel-Layer"/>
  <g id="_1519916192704">
   <g style="clip-path:url(#id0)">
    <image x="1202.43" y="836.91" width="1975.68" height="369.7" xlink:href="8_Images\8_ImgID1.png"/>
   </g>
   <path class="fil0" d="M1175.72 913c-13.04,-6.25 -140.14,-3 -154.91,-3.2 39.08,476.35 -376.46,705.4 -728.08,459.6 -287.81,-250.05 -74.8,-786.13 414.92,-750.47 -0.25,-30.15 1.41,-137.75 -4.64,-159.65 -798.71,-124.84 -980.14,1040.73 -213.49,1177.48 430.25,76.74 789.6,-352.51 686.2,-723.76z"/>
   <path class="fil1" d="M797.83 61.14c22.06,11 172.8,50.73 269.2,102.1 93.86,50.01 143.33,74.83 223.54,146.14 119.35,106.1 204.21,240.2 251.87,395.94 6.65,21.76 13.59,51.8 21.84,72.78l58.18 2.58c-10.84,-115.21 -51.42,-215.89 -98.94,-301.93 -38.12,-69.02 -120.48,-173.27 -180.73,-221.56 -78.96,-63.28 -131.59,-113.56 -237.39,-161.92 -93.77,-42.86 -187.54,-84.87 -305.4,-95.27l-2.17 61.14z"/>
   <path class="fil0" d="M798.71 230.58c72.81,16.79 230.54,92 297.59,134.1 123.82,77.74 205.9,183.28 261.14,318.63 11.75,28.8 25.84,84.73 37.59,107.02l66.67 0.72c4.58,-123.24 -71.65,-255.35 -140.56,-343.65l-79.9 -82.65c-14.69,-11.52 -28.67,-24.39 -43.52,-36.36 -40.64,-32.74 -99.93,-69.77 -148.26,-94.15 -44.28,-22.32 -191.11,-81.36 -248.16,-73.6l-2.6 69.95z"/>
   <path class="fil1" d="M800.62 806.4c-18.83,44.26 -116.83,325.93 -128.34,335.96 -42.2,-33.09 -63.84,-66.17 -89.78,-89.38l-58.1 -54.91c-3.55,5.2 -38.17,83.33 -30.93,93.55l66.35 66.86c22.27,23.53 42.63,44.71 64.95,68.19 32.72,34.42 28.5,23.19 106.07,19.39 13.19,-21.78 31.86,-79.35 42.62,-107.71 18.07,-47.62 117.73,-308.98 123.15,-337.19l-95.98 5.23z"/>
   <path class="fil1" d="M451.67 825.45c-9.62,16.1 -71.01,185.8 -83.13,218.56 -15.42,41.68 -75.85,196.29 -81.62,226.13l95.91 -4.88 126.53 -337.23c29.76,13.17 115.8,126.01 149.86,146.36l34.04 -90.99c-7.9,-9 -17.47,-15.18 -25.93,-24.07 -8.91,-9.36 -15.65,-16.41 -24.55,-25.74l-100.7 -103.39c-14.31,-12.71 -18.87,-8.81 -41.38,-7.53 -16.3,0.92 -32.59,1.58 -49.03,2.77z"/>
   <path class="fil0" d="M796.66 649.36c90.37,68.11 104.2,88.8 177.3,167.78l165.39 -7.2c-22.38,-116.44 -216.25,-300.05 -340.29,-319.14l-2.39 158.56z"/>
   <path class="fil1" d="M797.58 384.9c45.24,25.75 103.13,39.7 148.08,65.42 49.78,28.48 85.63,58.61 123.09,89.89 25.8,21.54 80.46,87.51 98.31,114.62 33.42,50.73 45.92,79.59 67.91,144.97l83.37 -2.15c-5.98,-74.81 -57.89,-160.39 -99.55,-212.37 -9.98,-12.44 -18.96,-22.26 -28.01,-34.09 -16.23,-21.22 -74.67,-76.97 -95.48,-93.89 -39.15,-31.84 -63.4,-52.38 -109.71,-79.5 -34.96,-20.47 -135.6,-70.7 -186.15,-65.58l-1.88 72.68z"/>
  </g>
 </g>
</svg>
